<svg width="100" height="100" viewBox="0 0 100 100" fill="none" xmlns="http://www.w3.org/2000/svg">
<path d="M61.275 17.9708H38.725C35.999 17.9697 33.2995 18.5058 30.7808 19.5483C28.262 20.5909 25.9734 22.1195 24.0457 24.0469C22.1179 25.9743 20.5888 28.2626 19.5457 30.7811C18.5027 33.2996 17.9661 35.999 17.9666 38.725V61.275C17.9656 64.0013 18.5017 66.7012 19.5445 69.2202C20.5874 71.7392 22.1164 74.028 24.0442 75.9558C25.972 77.8836 28.2608 79.4126 30.7798 80.4554C33.2988 81.4982 35.9986 82.0344 38.725 82.0333H61.275C64.0013 82.0344 66.7011 81.4982 69.2201 80.4554C71.7392 79.4126 74.028 77.8836 75.9558 75.9558C77.8836 74.028 79.4126 71.7392 80.4554 69.2202C81.4982 66.7012 82.0344 64.0013 82.0333 61.275V38.725C82.0344 35.9987 81.4982 33.2988 80.4554 30.7798C79.4126 28.2608 77.8836 25.972 75.9558 24.0442C74.028 22.1164 71.7392 20.5874 69.2201 19.5446C66.7011 18.5018 64.0013 17.9656 61.275 17.9667V17.9708Z" stroke="#00B4ED" stroke-width="6.25"/>
<path d="M81.6917 64.95H88.4375C89.5702 64.95 90.6565 64.5 91.4574 63.6991C92.2584 62.8982 92.7083 61.8119 92.7083 60.6792V39.325C92.7083 38.1923 92.2584 37.106 91.4574 36.3051C90.6565 35.5041 89.5702 35.0542 88.4375 35.0542H81.6875M18.3125 64.95H11.5625C11.0016 64.95 10.4463 64.8395 9.92811 64.6249C9.40995 64.4103 8.93914 64.0957 8.54255 63.6991C8.14597 63.3025 7.83138 62.8317 7.61675 62.3135C7.40212 61.7954 7.29166 61.24 7.29166 60.6792V39.325C7.29166 38.1923 7.74162 37.106 8.54255 36.3051C9.34349 35.5041 10.4298 35.0542 11.5625 35.0542H18.3125" stroke="#00B4ED" stroke-width="6.25"/>
<path d="M11.5208 35.0542V17.9708M88.4375 35.0542L88.3958 17.9708M37.1458 36.5125V47.7542M62.7708 36.5125V47.7542M41.4166 64.95H58.5" stroke="#00B4ED" stroke-width="6.25" stroke-linecap="round" stroke-linejoin="round"/>
</svg>
